<svg width="64" height="64" viewBox="0 0 64 64" fill="none" xmlns="http://www.w3.org/2000/svg">
  <rect width="64" height="64" rx="12" fill="#F3F4F6"/>
  <path d="M32 16C32 14.8954 31.1046 14 30 14H18C16.8954 14 16 14.8954 16 16V28C16 29.1046 16.8954 30 18 30H30C31.1046 30 32 29.1046 32 28V16Z" fill="#9CA3AF"/>
  <path d="M48 36C48 34.8954 47.1046 34 46 34H34C32.8954 34 32 34.8954 32 36V48C32 49.1046 32.8954 50 34 50H46C47.1046 50 48 49.1046 48 48V36Z" fill="#9CA3AF"/>
  <path d="M32 36C32 34.8954 31.1046 34 30 34H18C16.8954 34 16 34.8954 16 36V48C16 49.1046 16.8954 50 18 50H30C31.1046 50 32 49.1046 32 48V36Z" fill="#6B7280"/>
  <path d="M48 16C48 14.8954 47.1046 14 46 14H34C32.8954 14 32 14.8954 32 16V28C32 29.1046 32.8954 30 34 30H46C47.1046 30 48 29.1046 48 28V16Z" fill="#6B7280"/>
</svg>